<svg width="19" height="19" viewBox="0 0 19 19" fill="none" xmlns="http://www.w3.org/2000/svg">
<path d="M17.4167 6.72917V10.6875M11.2551 2.77084C10.7067 2.51049 10.1071 2.37542 9.5 2.37542C8.89287 2.37542 8.29335 2.51049 7.74488 2.77084L2.44783 5.2543C1.29517 5.79421 1.29517 7.66413 2.44783 8.20405L7.74408 10.6875C8.29266 10.948 8.89233 11.0831 9.4996 11.0831C10.1069 11.0831 10.7065 10.948 11.2551 10.6875L16.5522 8.20405C17.7048 7.66413 17.7048 5.79421 16.5522 5.2543L11.2551 2.77084Z" stroke="black" stroke-width="1.5" stroke-linecap="round" stroke-linejoin="round"/>
<path d="M3.95833 9.10417V13.1615C3.95833 15.4715 7.67442 16.625 9.5 16.625C11.3256 16.625 15.0417 15.4715 15.0417 13.1615V9.10417" stroke="black" stroke-width="1.5" stroke-linecap="round" stroke-linejoin="round"/>
</svg>
