<svg width="22" height="22" viewBox="0 0 22 22" fill="none" xmlns="http://www.w3.org/2000/svg">
<path d="M11.22 2.71792C11.1182 2.71808 11.0177 2.74087 10.9257 2.78462C10.8338 2.82837 10.7527 2.892 10.6883 2.97092L10.6352 3.01033C9.63839 2.70748 8.57824 2.6799 7.56706 2.93052C6.55587 3.18114 5.63131 3.70061 4.89134 4.43392C4.23603 5.0834 3.7487 5.88267 3.47145 6.76266C3.19419 7.64266 3.13535 8.57692 3.3 9.48475L3.28625 9.4985L2.40809 10.3702C2.22697 10.55 2.08322 10.7639 1.98512 10.9995C1.88702 11.2351 1.83652 11.4878 1.83652 11.743C1.83652 11.9982 1.88702 12.2508 1.98512 12.4864C2.08322 12.722 2.22697 12.9359 2.40809 13.1157C2.62153 13.3273 2.88075 13.487 3.16572 13.5825C3.4507 13.678 3.75381 13.7068 4.05167 13.6666C4.15785 14.0532 4.38047 14.3977 4.68928 14.6534C4.9981 14.9091 5.37813 15.0635 5.77775 15.0957C5.81883 15.5657 6.02872 16.005 6.36861 16.3322C6.70851 16.6595 7.15541 16.8526 7.62667 16.8758C7.6505 17.3397 7.84025 17.7962 8.19684 18.15C8.8935 18.843 9.98617 18.9026 10.7516 18.3306L11.1063 18.6826C11.4755 19.0487 11.9743 19.2541 12.4942 19.2541C13.0141 19.2541 13.5129 19.0487 13.882 18.6826C14.2212 18.3443 14.4109 17.9144 14.4503 17.4744C14.9076 17.4353 15.3365 17.2364 15.6617 16.9125C15.987 16.5886 16.1877 16.1605 16.2287 15.7034C16.6315 15.6661 17.0128 15.5046 17.3199 15.2412C17.627 14.9778 17.8447 14.6256 17.9428 14.2331C18.2362 14.268 18.5337 14.2361 18.8131 14.1399C19.0924 14.0437 19.3464 13.8857 19.5562 13.6776C19.7372 13.4978 19.8808 13.284 19.9788 13.0485C20.0768 12.813 20.1273 12.5604 20.1273 12.3053C20.1273 12.0502 20.0768 11.7977 19.9788 11.5622C19.8808 11.3266 19.7372 11.1129 19.5562 10.9331L18.7926 10.1732L18.9503 9.56267C19.2915 8.23412 19.1197 6.82576 18.469 5.61825C17.9957 4.74158 17.2939 4.0094 16.438 3.49941C15.5822 2.98941 14.6042 2.72063 13.6079 2.72158H12.1348C12.0719 2.71874 12.009 2.71752 11.946 2.71792H11.22ZM13.9013 7.25083L17.0766 10.4051L17.0793 10.4097L17.0922 10.4216L18.5818 11.902C18.635 11.9548 18.6772 12.0177 18.706 12.0869C18.7348 12.1561 18.7497 12.2303 18.7497 12.3053C18.7497 12.3803 18.7348 12.4546 18.706 12.5238C18.6772 12.593 18.635 12.6558 18.5818 12.7087C18.4736 12.8156 18.3277 12.8756 18.1757 12.8756C18.0236 12.8756 17.8777 12.8156 17.7696 12.7087L16.28 11.2282C16.1502 11.0997 15.975 11.0276 15.7923 11.0276C15.6097 11.0276 15.4344 11.0997 15.3047 11.2282L15.29 11.2438C15.226 11.3072 15.1752 11.3827 15.1405 11.4659C15.1059 11.549 15.088 11.6382 15.088 11.7283C15.088 11.8184 15.1059 11.9076 15.1405 11.9907C15.1752 12.0739 15.226 12.1493 15.29 12.2127L16.4505 13.3659C16.504 13.4188 16.5465 13.4817 16.5754 13.5511C16.6044 13.6205 16.6194 13.695 16.6194 13.7702C16.6194 13.8454 16.6044 13.9198 16.5754 13.9892C16.5465 14.0586 16.504 14.1216 16.4505 14.1744C16.3524 14.2716 16.2227 14.3303 16.085 14.3401C15.9472 14.3498 15.8106 14.3099 15.6998 14.2276C15.5663 14.1279 15.4014 14.0796 15.2353 14.0915C15.0691 14.1035 14.9128 14.1749 14.795 14.2927C14.6776 14.4101 14.607 14.5663 14.5965 14.732C14.5861 14.8977 14.6364 15.0616 14.7382 15.1928C14.8227 15.3026 14.8643 15.4395 14.855 15.5777C14.8457 15.716 14.7862 15.8461 14.6878 15.9436C14.5881 16.0423 14.456 16.1014 14.316 16.1098C14.176 16.1183 14.0377 16.0755 13.9269 15.9894C13.7944 15.886 13.6288 15.8344 13.461 15.844C13.2933 15.8536 13.1347 15.9238 13.0148 16.0417C12.8954 16.1592 12.8234 16.3166 12.8126 16.4838C12.8018 16.651 12.8529 16.8163 12.9562 16.9482C13.0428 17.0597 13.0856 17.199 13.0764 17.3399C13.0673 17.4807 13.0069 17.6134 12.9067 17.7127C12.7968 17.8213 12.6486 17.8823 12.4942 17.8823C12.3397 17.8823 12.1915 17.8213 12.0817 17.7127L11.7407 17.3745L11.8369 17.2782C12.0179 17.0985 12.1615 16.8847 12.2596 16.6492C12.3576 16.4137 12.408 16.1611 12.408 15.906C12.408 15.6509 12.3576 15.3983 12.2596 15.1628C12.1615 14.9273 12.0179 14.7135 11.8369 14.5337C11.4941 14.1925 11.0368 13.9906 10.5536 13.9672C10.5272 13.4964 10.3313 13.0509 10.0021 12.7132C9.67284 12.3756 9.23249 12.1685 8.76242 12.1302C8.7252 11.671 8.52452 11.2404 8.19684 10.9166C7.98339 10.705 7.72417 10.5453 7.4392 10.4497C7.15422 10.3542 6.85111 10.3254 6.55325 10.3657C6.43732 9.9435 6.18288 9.57255 5.83077 9.31238C5.47867 9.05221 5.04935 8.91792 4.61175 8.93108C4.54181 8.28631 4.61833 7.63406 4.83562 7.02299C5.05291 6.41191 5.40535 5.85778 5.86667 5.40192C6.2964 4.97524 6.81007 4.64249 7.37513 4.42473C7.94019 4.20697 8.54433 4.10897 9.14925 4.13692L7.777 5.1755C7.55401 5.34427 7.36658 5.55547 7.22552 5.79695C7.08446 6.03843 6.99254 6.30542 6.95505 6.58256C6.91757 6.8597 6.93525 7.14151 7.0071 7.41179C7.07894 7.68207 7.20352 7.93547 7.37367 8.15742C7.71731 8.60536 8.22414 8.89925 8.78361 8.97498C9.34309 9.05071 9.90981 8.90214 10.3602 8.56167L12.0918 7.24992L13.9013 7.25083ZM8.60659 6.27275L11.484 4.09292H11.946C12.0032 4.09266 12.0603 4.09419 12.1174 4.0975H13.6079C14.3558 4.09649 15.0899 4.29791 15.7326 4.6804C16.3752 5.06288 16.9024 5.61217 17.2581 6.27C17.7118 7.11333 17.8539 8.08317 17.6651 9.01542L14.7217 6.08575C14.6576 6.01941 14.5808 5.96664 14.496 5.93057C14.4111 5.89451 14.3198 5.87589 14.2276 5.87583H11.8617C11.7118 5.87576 11.5659 5.92469 11.4464 6.01517L9.53059 7.46625C9.36992 7.5875 9.16787 7.6404 8.96839 7.61345C8.76892 7.5865 8.58815 7.48187 8.46542 7.32233C8.40548 7.24423 8.36159 7.15503 8.33628 7.05988C8.31096 6.96474 8.30473 6.86552 8.31794 6.76796C8.33115 6.67039 8.36353 6.57641 8.41323 6.49142C8.46293 6.40642 8.52895 6.33211 8.6075 6.27275M5.533 13.5639C5.47979 13.5111 5.43756 13.4483 5.40873 13.379C5.37991 13.3098 5.36508 13.2356 5.36508 13.1606C5.36508 13.0856 5.37991 13.0114 5.40873 12.9421C5.43756 12.8729 5.47979 12.8101 5.533 12.7572L6.41025 11.8864C6.51837 11.7795 6.66428 11.7195 6.81634 11.7195C6.96839 11.7195 7.11431 11.7795 7.22242 11.8864C7.32837 11.9918 7.38854 12.1347 7.38991 12.2841C7.39128 12.4336 7.33375 12.5775 7.22975 12.6848L7.22242 12.6931L6.34517 13.5639L6.33692 13.5722C6.22823 13.6756 6.08353 13.7327 5.93348 13.7314C5.78342 13.73 5.63979 13.6703 5.533 13.5648M5.08292 10.4775C5.18639 10.585 5.24343 10.7289 5.24171 10.8781C5.24 11.0273 5.17967 11.1699 5.07375 11.275L4.1965 12.1477C4.08839 12.2546 3.94247 12.3146 3.79042 12.3146C3.63837 12.3146 3.49245 12.2546 3.38434 12.1477C3.33112 12.0948 3.28889 12.032 3.26007 11.9628C3.23125 11.8936 3.21641 11.8193 3.21641 11.7443C3.21641 11.6693 3.23125 11.5951 3.26007 11.5259C3.28889 11.4567 3.33112 11.3938 3.38434 11.341L4.2625 10.4692C4.37062 10.3623 4.51653 10.3024 4.66859 10.3024C4.82064 10.3024 4.96656 10.3623 5.07467 10.4692L5.08292 10.4775ZM9.98525 17.182C9.87714 17.2889 9.73122 17.3489 9.57917 17.3489C9.42712 17.3489 9.2812 17.2889 9.17309 17.182C9.11987 17.1292 9.07764 17.0663 9.04882 16.9971C9.02 16.9279 9.00516 16.8536 9.00516 16.7787C9.00516 16.7037 9.02 16.6294 9.04882 16.5602C9.07764 16.491 9.11987 16.4282 9.17309 16.3753L10.0503 15.5036C10.1584 15.3967 10.3044 15.3367 10.4564 15.3367C10.6085 15.3367 10.7544 15.3967 10.8625 15.5036C10.9157 15.5564 10.958 15.6192 10.9868 15.6885C11.0156 15.7577 11.0304 15.8319 11.0304 15.9069C11.0304 15.9819 11.0156 16.0561 10.9868 16.1254C10.958 16.1946 10.9157 16.2574 10.8625 16.3102L9.98525 17.182ZM8.13267 15.3413C8.02456 15.4483 7.87864 15.5082 7.72659 15.5082C7.57453 15.5082 7.42862 15.4483 7.3205 15.3413C7.21416 15.236 7.15364 15.093 7.1521 14.9434C7.15055 14.7937 7.2081 14.6495 7.31225 14.542L7.3205 14.5347L8.19775 13.6629L8.20509 13.6547C8.31394 13.551 8.4589 13.4939 8.60918 13.4955C8.75945 13.497 8.90321 13.5571 9.00992 13.6629C9.06313 13.7157 9.10537 13.7786 9.13419 13.8478C9.16301 13.917 9.17785 13.9913 9.17785 14.0662C9.17785 14.1412 9.16301 14.2155 9.13419 14.2847C9.10537 14.3539 9.06313 14.4168 9.00992 14.4696L8.13267 15.3413Z" fill="black"/>
</svg>
