<svg width="1" height="19" viewBox="0 0 1 19" fill="none" xmlns="http://www.w3.org/2000/svg">
<path d="M3.56093 3.95834C2.52939 3.94092 2.03459 4.14359 1.75989 4.86242C1.59364 5.29863 1.58334 5.776 1.58334 6.24309V14.25C1.66884 14.7519 1.81134 15.0852 2.17076 15.3583C2.75739 15.8017 3.53639 15.8626 4.26076 15.994C5.84726 16.2814 7.22714 16.7683 9.49526 17.4167M9.49526 17.4167C11.5956 16.7667 13.0973 16.3163 14.5049 16.0566C15.6299 15.8484 17.062 15.7083 17.3153 14.592C17.3818 14.2983 17.4119 13.931 17.4064 13.4583V7.33559C17.4064 6.14492 17.5869 4.54813 16.5007 4.06125C16.2284 3.94013 15.8856 3.91875 15.4288 3.95834M9.49526 17.4167V11.875M9.49447 9.5C10.5439 9.49937 11.5501 9.08206 12.2919 8.33979C13.0337 7.59753 13.4504 6.59107 13.4504 5.54167C13.4504 3.35509 11.6795 1.58334 9.49447 1.58334M9.49447 9.5C8.44506 9.49937 7.43886 9.08206 6.69704 8.33979C5.95522 7.59753 5.53851 6.59107 5.53851 5.54167C5.53851 3.35509 7.30947 1.58334 9.49447 1.58334M9.49447 9.5C10.3685 9.5 11.077 7.72667 11.077 5.54167C11.077 3.35509 10.3685 1.58334 9.49368 1.58334M9.49447 1.58334C8.62047 1.58334 7.91193 3.35509 7.91193 5.54167C7.91193 7.72667 8.62047 9.5 9.49368 9.5" stroke="black" stroke-width="1.5" stroke-linecap="round" stroke-linejoin="round"/>
</svg>
