<svg width="18" height="18" viewBox="0 0 18 18" fill="none" xmlns="http://www.w3.org/2000/svg">
<path d="M10.5 13.5C10.5 14.55 10.5 15.075 10.7047 15.4762C10.8845 15.8288 11.1712 16.1155 11.5237 16.2952C11.925 16.5 12.45 16.5 13.5 16.5C14.55 16.5 15.075 16.5 15.4762 16.2952C15.8288 16.1155 16.1155 15.8288 16.2952 15.4762C16.5 15.075 16.5 14.55 16.5 13.5C16.5 12.45 16.5 11.925 16.2952 11.5237C16.1155 11.1712 15.8288 10.8845 15.4762 10.7047C15.075 10.5 14.55 10.5 13.5 10.5M10.5 13.5C10.5 12.45 10.5 11.925 10.7047 11.5237C10.8845 11.1712 11.1712 10.8845 11.5237 10.7047C11.925 10.5 12.45 10.5 13.5 10.5M10.5 13.5C10.5 14.55 10.5 15.075 10.2952 15.4762C10.1155 15.8288 9.82884 16.1155 9.47625 16.2952C9.075 16.5 8.55 16.5 7.5 16.5C6.45 16.5 5.925 16.5 5.52375 16.2952C5.17088 16.1156 4.88392 15.829 4.704 15.4762C4.5 15.075 4.5 14.55 4.5 13.5C4.5 12.45 4.5 11.925 4.704 11.5237C4.88392 11.171 5.17088 10.8843 5.52375 10.7047C5.925 10.5 6.45 10.5 7.5 10.5C8.55 10.5 9.075 10.5 9.47625 10.7047C9.82884 10.8845 10.1155 11.1712 10.2952 11.5237C10.5 11.925 10.5 12.45 10.5 13.5ZM13.5 10.5C14.55 10.5 15.075 10.5 15.4762 10.2952C15.8288 10.1155 16.1155 9.82884 16.2952 9.47625C16.5 9.075 16.5 8.55 16.5 7.5C16.5 6.45 16.5 5.925 16.2952 5.52375C16.1156 5.17088 15.829 4.88392 15.4762 4.704C15.075 4.5 14.55 4.5 13.5 4.5C12.45 4.5 11.925 4.5 11.5237 4.704C11.171 4.88392 10.8843 5.17088 10.7047 5.52375C10.5 5.925 10.5 6.45 10.5 7.5C10.5 8.55 10.5 9.075 10.7047 9.47625C10.8845 9.82884 11.1712 10.1155 11.5237 10.2952C11.925 10.5 12.45 10.5 13.5 10.5ZM7.5 4.5C7.5 5.55 7.5 6.075 7.296 6.47625C7.11621 6.82923 6.82923 7.11621 6.47625 7.296C6.075 7.5 5.55 7.5 4.5 7.5C3.45 7.5 2.925 7.5 2.52375 7.296C2.17077 7.11621 1.88379 6.82923 1.704 6.47625C1.5 6.075 1.5 5.55 1.5 4.5C1.5 3.45 1.5 2.925 1.704 2.52375C1.88379 2.17077 2.17077 1.88379 2.52375 1.704C2.925 1.5 3.45 1.5 4.5 1.5C5.55 1.5 6.075 1.5 6.47625 1.704C6.82923 1.88379 7.11621 2.17077 7.296 2.52375C7.5 2.925 7.5 3.45 7.5 4.5Z" stroke="black" stroke-width="1.5" stroke-linecap="round" stroke-linejoin="round"/>
</svg>
