<svg width="19" height="19" viewBox="0 0 19 19" fill="none" xmlns="http://www.w3.org/2000/svg">
<path fill-rule="evenodd" clip-rule="evenodd" d="M9.5 0.968751C4.789 0.968751 0.96875 4.789 0.96875 9.5C0.96875 14.211 4.789 18.0313 9.5 18.0313C14.211 18.0313 18.0312 14.211 18.0312 9.5C18.0316 8.92835 17.9759 8.35804 17.865 7.79725C17.8355 7.64838 17.7552 7.51435 17.638 7.41798C17.5207 7.32162 17.3737 7.26888 17.2219 7.26875H9.5C9.32595 7.26875 9.15903 7.33789 9.03596 7.46096C8.91289 7.58403 8.84375 7.75095 8.84375 7.925V11.075C8.84375 11.4373 9.13775 11.7313 9.5 11.7313H12.8976C12.6481 12.1098 12.3376 12.4445 11.9789 12.7218H11.9771L11.9789 12.7235C11.2699 13.2737 10.3974 13.5712 9.5 13.5688C8.4209 13.5688 7.386 13.1401 6.62296 12.377C5.85992 11.614 5.43125 10.5791 5.43125 9.5C5.43125 8.4209 5.85992 7.386 6.62296 6.62296C7.386 5.85992 8.4209 5.43125 9.5 5.43125C10.536 5.43125 11.4775 5.8215 12.1985 6.462C12.3236 6.57333 12.4865 6.63262 12.6539 6.62774C12.8213 6.62286 12.9805 6.55418 13.0989 6.43575L15.3258 4.208C15.3881 4.14569 15.4372 4.07146 15.4702 3.98975C15.5032 3.90804 15.5194 3.82052 15.5179 3.73241C15.5163 3.6443 15.497 3.5574 15.4612 3.47691C15.4253 3.39641 15.3736 3.32396 15.3091 3.26388C13.7349 1.78824 11.6577 0.967574 9.5 0.968751ZM12.3018 14.0938C11.6836 14.4709 10.9956 14.7195 10.2791 14.8244C9.56252 14.9294 8.83218 14.8887 8.13176 14.7047C7.43134 14.5207 6.77527 14.1973 6.20284 13.7537C5.6304 13.3101 5.15339 12.7556 4.80038 12.1233L3.333 13.2538C3.97721 14.312 4.88293 15.1866 5.96299 15.7934C7.04306 16.4003 8.26113 16.7189 9.5 16.7188C11.0934 16.7188 12.5669 16.2025 13.7613 15.3275L12.3018 14.0938ZM14.7544 14.449C16.0182 13.1114 16.7212 11.3402 16.7188 9.5C16.7188 9.1955 16.6986 8.884 16.6619 8.58125H10.1562V10.4188H13.9503C14.0552 10.4188 14.1587 10.444 14.2519 10.4922C14.3451 10.5405 14.4254 10.6104 14.486 10.6962C14.5466 10.7819 14.5858 10.8809 14.6002 10.9849C14.6146 11.0889 14.6039 11.1948 14.5689 11.2938C14.3074 12.0288 13.8905 12.6988 13.3465 13.2581L14.7544 14.449ZM3.3925 5.65088C4.0423 4.61838 4.94347 3.76765 6.01164 3.17832C7.07981 2.58899 8.28004 2.28034 9.5 2.28125C11.1555 2.28125 12.6763 2.843 13.8951 3.78275L12.5826 5.09525C11.6808 4.45884 10.6038 4.11768 9.5 4.11875C8.5687 4.11864 7.65331 4.36022 6.84335 4.81988C6.03339 5.27954 5.35659 5.94153 4.87912 6.74113L3.3925 5.65088ZM2.78875 6.83563C2.45173 7.68341 2.27949 8.58769 2.28125 9.5C2.27979 10.371 2.43693 11.235 2.745 12.0498L4.29112 10.858C4.17656 10.4144 4.11864 9.95813 4.11875 9.5C4.11875 8.96975 4.19575 8.457 4.33837 7.97225L2.78875 6.83563Z" fill="black"/>
</svg>
