<svg width="19" height="19" viewBox="0 0 19 19" fill="none" xmlns="http://www.w3.org/2000/svg">
<path d="M1.58333 8.70834L5.54166 1.58334L9.5 8.70834H1.58333ZM5.54166 16.625C4.67083 16.625 3.92534 16.3149 3.3052 15.6948C2.68506 15.0747 2.37499 14.3292 2.37499 13.4583C2.37499 12.5743 2.68506 11.8254 3.3052 11.2116C3.92534 10.5978 4.67083 10.2911 5.54166 10.2917C6.4125 10.2922 7.15798 10.6023 7.77812 11.2219C8.39826 11.8415 8.70833 12.587 8.70833 13.4583C8.70833 14.3297 8.39826 15.0752 7.77812 15.6948C7.15798 16.3144 6.4125 16.6245 5.54166 16.625ZM5.54166 15.0417C5.97708 15.0417 6.34969 14.8868 6.65949 14.577C6.9693 14.2672 7.12447 13.8943 7.125 13.4583C7.12552 13.0224 6.97062 12.6498 6.66029 12.3405C6.34995 12.0312 5.97708 11.8761 5.54166 11.875C5.10624 11.8739 4.73363 12.0291 4.42383 12.3405C4.11402 12.6519 3.95886 13.0245 3.95833 13.4583C3.9578 13.8922 4.11297 14.265 4.42383 14.577C4.73469 14.8889 5.1073 15.0438 5.54166 15.0417ZM4.275 7.125H6.80833L5.54166 4.84896L4.275 7.125ZM10.2917 16.625V10.2917H16.625V16.625H10.2917ZM11.875 15.0417H15.0417V11.875H11.875V15.0417ZM13.4583 8.70834C12.7062 8.075 12.0763 7.54063 11.5686 7.10521C11.0609 6.66979 10.655 6.28716 10.351 5.95729C10.047 5.62743 9.82933 5.31736 9.69791 5.02709C9.5665 4.73681 9.50052 4.42674 9.5 4.09688C9.5 3.50313 9.70794 3.00174 10.1238 2.59271C10.5397 2.18368 11.0575 1.97917 11.6771 1.97917C12.0333 1.97917 12.3666 2.06177 12.677 2.22696C12.9873 2.39216 13.2477 2.61963 13.4583 2.90938C13.6694 2.6191 13.9302 2.39163 14.2405 2.22696C14.5508 2.06229 14.8839 1.9797 15.2396 1.97917C15.8597 1.97917 16.3777 2.18368 16.7936 2.59271C17.2095 3.00174 17.4172 3.50313 17.4167 4.09688C17.4167 4.42674 17.3507 4.73681 17.2187 5.02709C17.0868 5.31736 16.8691 5.62743 16.5656 5.95729C16.2621 6.28716 15.8566 6.66979 15.3488 7.10521C14.8411 7.54063 14.2109 8.075 13.4583 8.70834ZM13.4583 6.63021C14.4083 5.83854 15.0417 5.27778 15.3583 4.94792C15.675 4.61806 15.8333 4.34757 15.8333 4.13646C15.8333 3.96493 15.784 3.82639 15.6853 3.72084C15.5866 3.61528 15.4512 3.5625 15.2792 3.5625C15.1472 3.5625 15.0184 3.59866 14.8928 3.67096C14.7672 3.74327 14.6123 3.87204 14.4281 4.05729L13.4583 4.9875L12.4885 4.05729C12.3038 3.87257 12.1489 3.74379 12.0238 3.67096C11.8987 3.59813 11.77 3.56197 11.6375 3.5625C11.466 3.5625 11.3309 3.61528 11.2322 3.72084C11.1335 3.82639 11.0839 3.96493 11.0833 4.13646C11.0833 4.34757 11.2417 4.61806 11.5583 4.94792C11.875 5.27778 12.5083 5.83854 13.4583 6.63021Z" fill="black"/>
</svg>
