<svg width="18" height="18" viewBox="0 0 18 18" fill="none" xmlns="http://www.w3.org/2000/svg">
<path d="M5 1.625C5.4375 1.625 7.1875 5.5625 7.1875 6C7.1875 6.875 5.875 7.75 5.4375 8.625C5 9.5 5.875 10.375 6.75 11.25C7.09125 11.5912 8.5 13 9.375 12.5625C10.25 12.125 11.125 10.8125 12 10.8125C12.4375 10.8125 16.375 12.5625 16.375 13C16.375 14.75 15.0625 16.0625 13.75 16.5C12.4375 16.9375 11.5625 16.9375 9.8125 16.5C8.0625 16.0625 6.75 15.625 4.5625 13.4375C2.375 11.25 1.9375 9.9375 1.5 8.1875C1.0625 6.4375 1.0625 5.5625 1.5 4.25C1.9375 2.9375 3.25 1.625 5 1.625Z" stroke="black" stroke-width="2" stroke-linecap="round" stroke-linejoin="round"/>
</svg>
