<svg width="44" height="44" viewBox="0 0 44 44" fill="none" xmlns="http://www.w3.org/2000/svg">
<path fill-rule="evenodd" clip-rule="evenodd" d="M30.7897 19.8104C31.0522 20.0729 31.1996 20.4289 31.1996 20.8002C31.1996 21.1714 31.0522 21.5274 30.7897 21.79L22.8699 29.7098C22.7407 29.8435 22.5863 29.9501 22.4155 30.0235C22.2447 30.0969 22.0609 30.1355 21.8751 30.1371C21.6892 30.1387 21.5048 30.1033 21.3328 30.0329C21.1607 29.9625 21.0044 29.8586 20.8729 29.7271C20.7415 29.5957 20.6375 29.4393 20.5671 29.2673C20.4968 29.0952 20.4613 28.9109 20.4629 28.725C20.4646 28.5391 20.5032 28.3554 20.5766 28.1846C20.6499 28.0138 20.7566 27.8593 20.8903 27.7302L27.8203 20.8002L20.8903 13.8702C20.6353 13.6061 20.4942 13.2525 20.4974 12.8854C20.5005 12.5183 20.6478 12.1672 20.9073 11.9076C21.1669 11.648 21.5181 11.5008 21.8851 11.4976C22.2522 11.4944 22.6059 11.6355 22.8699 11.8906L30.7897 19.8104Z" fill="#F4EBD1"/>
</svg>
