<svg width="54" height="54" viewBox="0 0 54 54" fill="none" xmlns="http://www.w3.org/2000/svg">
<path d="M15.6436 10.0293C17.5035 9.04956 21.4118 7.30897 26.6409 7.31865C31.6807 7.32794 35.4678 8.95818 37.3284 9.91308C40.8522 8.88034 44.376 7.84799 47.8998 6.81525C40.7488 4.71144 33.5983 2.60723 26.4473 0.503418C19.3223 2.58168 12.1973 4.65955 5.07227 6.73781C8.59605 7.83483 12.1198 8.93223 15.6436 10.0293Z" fill="white"/>
<path d="M17.2314 11.3458C18.7629 10.5234 22.0401 9.02673 26.4475 9.02247C30.877 9.01821 34.17 10.523 35.7023 11.3458C35.7023 13.2173 35.7023 15.0892 35.7023 16.9607C34.8864 16.6513 33.5737 16.2776 31.9461 16.3411C29.1906 16.4484 27.2498 17.7421 26.4862 18.316C25.7203 17.7289 23.1874 15.9446 19.8646 16.3024C18.8013 16.417 17.9122 16.7233 17.2314 17.0381C17.2314 15.1407 17.2314 13.2433 17.2314 11.3458Z" fill="white"/>
<path d="M0.696777 18.2385C4.87885 29.2745 9.06093 40.3105 13.243 51.3466C14.8434 51.3593 16.4442 51.3725 18.0446 51.3853C20.8327 48.4164 23.6207 45.4479 26.4088 42.479C29.1968 45.4735 31.9849 48.4683 34.7729 51.4627C36.438 51.45 38.1031 51.4368 39.7682 51.424C43.86 40.3233 47.9515 29.223 52.0434 18.1223C49.4102 18.1738 46.777 18.2257 44.1439 18.2772C41.7303 24.2793 39.3163 30.2813 36.9027 36.2834C36.6305 36.9598 36.2529 37.404 36.1282 37.5612C35.734 38.0592 35.3197 38.417 34.9859 38.6648C34.5665 38.8263 34.1468 38.9874 33.7274 39.1489C33.5485 39.1156 33.4385 38.9684 33.4564 38.8391C33.473 38.7171 33.5973 38.6524 33.6113 38.6455C34.2169 38.1138 34.6943 37.6286 35.044 37.2514C35.8676 36.3624 36.0469 35.9999 36.1282 35.6251C36.16 35.4791 36.3068 34.731 35.9346 34.3859C35.7584 34.2225 35.5474 34.1923 35.5474 34.1923C35.3429 34.1633 35.1822 34.2376 35.1214 34.2698C34.3985 34.9927 33.6759 35.7153 32.953 36.4382C32.9468 36.4394 32.8848 36.4499 32.8074 36.4406C32.6885 36.4259 32.5913 36.3581 32.5657 36.3221C32.4298 36.1331 33.2736 35.3041 33.3015 35.2766C35.0169 33.5906 35.2454 33.2231 35.3925 32.8757C35.4827 32.6632 35.856 31.7822 35.47 31.3655C35.2663 31.1456 34.8593 31.0639 34.5406 31.0945C34.3578 31.1119 34.2118 31.1657 34.1147 31.2107C33.1981 31.9592 32.2819 32.7081 31.3653 33.4566C31.1268 33.6425 30.8108 33.5669 30.707 33.3791C30.6277 33.2359 30.6687 33.0213 30.8232 32.8757C31.9202 31.8302 33.0176 30.7847 34.1147 29.7392C34.3958 29.149 34.285 28.4505 33.8436 27.9967C33.449 27.5912 32.8496 27.4421 32.2947 27.6094C30.8066 29.1688 29.4815 30.1481 28.8096 30.4362C28.2756 30.6651 27.7641 30.746 27.7641 30.746C27.5155 30.7855 27.2274 30.8308 26.8735 30.7847C26.1881 30.6953 25.7199 30.3227 25.4794 30.1264C25.2599 29.9471 24.8401 29.5975 24.5888 29.0035C24.1702 28.0145 24.5199 27.0615 24.6275 26.7962C25.0922 26.0865 25.5569 25.3763 26.0216 24.6665C26.1598 24.4121 26.1447 24.1085 25.9828 23.892C25.8047 23.6539 25.5263 23.6252 25.4794 23.621C24.7952 23.6082 24.1114 23.595 23.4271 23.5822C23.105 23.669 22.2976 23.9335 21.6459 24.7052C20.7378 25.7802 20.8114 27.0356 20.8327 27.2996C20.6139 27.3887 20.2728 27.5595 19.9421 27.8805C19.6667 28.1477 19.4987 28.4218 19.3999 28.6162C19.4127 29.2745 19.4259 29.9328 19.4387 30.5911C19.2342 30.643 18.8474 30.7696 18.4706 31.0945C18.0733 31.4372 17.8901 31.826 17.8123 32.0238C17.7624 32.2337 17.6973 32.6326 17.8123 33.1081C17.8975 33.4605 18.0493 33.7218 18.1608 33.8825C18.0141 33.9216 17.6764 34.0332 17.3864 34.3472C17.3232 34.4154 16.9631 34.8181 16.9604 35.4315C16.9569 36.2183 17.5451 36.6911 17.6187 36.748C18.3804 37.3676 19.1417 37.9872 19.9033 38.6067C19.9971 38.7275 20.0335 38.8797 19.9808 38.994C19.9018 39.1655 19.6195 39.2577 19.3612 39.1101C18.3672 38.5033 17.3736 37.8969 16.3796 37.2902C13.8366 30.9137 11.2941 24.5375 8.75114 18.161C6.06648 18.187 3.38144 18.2125 0.696777 18.2385Z" fill="white"/>
<path d="M28.7707 23.0013C29.6714 22.6408 30.7553 23.0958 31.4039 23.6596C31.5131 23.7545 32.6531 24.7741 32.4107 25.9443C32.3662 26.1596 32.2848 26.33 32.2171 26.4477C31.0426 27.4417 29.8677 28.4353 28.6933 29.4293C27.901 29.7988 26.9631 29.6779 26.2925 29.1196C25.6164 28.5569 25.3283 27.6473 25.5567 26.7962C26.0795 25.9342 27.1699 24.235 28.2673 23.3111C28.3645 23.2294 28.5264 23.0989 28.7707 23.0013Z" fill="white"/>
</svg>
