<svg width="97" height="45" viewBox="0 0 97 45" fill="none" xmlns="http://www.w3.org/2000/svg">
<path d="M5.87501 0.791337V11.9726C5.87501 13.0907 6.15011 13.9515 6.70029 14.5549C7.25048 15.1583 8.05802 15.4601 9.1229 15.4601C10.1878 15.4601 11.0042 15.1583 11.5721 14.5549C12.1401 13.9515 12.424 13.0907 12.424 11.9726V0.791337H16.9764V11.946C16.9764 13.6143 16.6214 15.0252 15.9115 16.1789C15.2016 17.3325 14.2432 18.2021 13.0363 18.7878C11.8472 19.3735 10.5161 19.6663 9.04303 19.6663C7.56995 19.6663 6.24772 19.3824 5.07635 18.8144C3.92273 18.2287 3.00871 17.3591 2.33429 16.2055C1.65986 15.0341 1.32265 13.6143 1.32265 11.946V0.791337H5.87501ZM45.89 0.791337L41.0181 19.48H35.5074L32.5257 7.18062L29.4376 19.48H23.9268L19.1881 0.791337H24.0599L26.7487 14.3952L30.0765 0.791337H35.0814L38.2761 14.3952L40.9915 0.791337H45.89ZM8.1645 44.6663C6.79791 44.6663 5.5733 44.4445 4.49067 44.0008C3.40804 43.5571 2.53839 42.9004 1.88171 42.0308C1.24279 41.1611 0.905573 40.114 0.870077 38.8894H5.71528C5.78627 39.5815 6.02587 40.114 6.43408 40.4867C6.84228 40.8416 7.37472 41.0191 8.03139 41.0191C8.70582 41.0191 9.23826 40.8683 9.62871 40.5665C10.0192 40.2471 10.2144 39.8123 10.2144 39.2621C10.2144 38.8006 10.0547 38.419 9.7352 38.1173C9.43349 37.8156 9.0519 37.5671 8.59046 37.3719C8.14676 37.1767 7.50783 36.9548 6.67367 36.7064C5.46681 36.3336 4.48179 35.9609 3.71863 35.5882C2.95547 35.2155 2.29879 34.6653 1.7486 33.9377C1.19842 33.21 0.923321 32.2605 0.923321 31.0891C0.923321 29.3498 1.55338 27.9921 2.81348 27.0159C4.07359 26.0221 5.71528 25.5251 7.73855 25.5251C9.79732 25.5251 11.4568 26.0221 12.7169 27.0159C13.977 27.9921 14.6514 29.3587 14.7401 31.1157H9.81507C9.77957 30.5123 9.55772 30.042 9.14952 29.7048C8.74131 29.3498 8.21775 29.1723 7.57882 29.1723C7.02863 29.1723 6.58493 29.3232 6.24772 29.6249C5.91051 29.9089 5.7419 30.326 5.7419 30.8761C5.7419 31.4796 6.02587 31.9499 6.59381 32.2871C7.16174 32.6243 8.04914 32.9882 9.25601 33.3786C10.4629 33.7868 11.439 34.1773 12.1844 34.55C12.9476 34.9227 13.6043 35.464 14.1545 36.1739C14.7046 36.8838 14.9797 37.7979 14.9797 38.916C14.9797 39.9809 14.7046 40.9481 14.1545 41.8178C13.622 42.6874 12.8411 43.3796 11.8117 43.8943C10.7823 44.409 9.5666 44.6663 8.1645 44.6663ZM26.6198 44.6663C24.8627 44.6663 23.2477 44.2581 21.7746 43.4417C20.3192 42.6253 19.1568 41.4894 18.2871 40.0341C17.4352 38.561 17.0092 36.9105 17.0092 35.0824C17.0092 33.2544 17.4352 31.6127 18.2871 30.1573C19.1568 28.702 20.3192 27.5661 21.7746 26.7497C23.2477 25.9333 24.8627 25.5251 26.6198 25.5251C28.3768 25.5251 29.983 25.9333 31.4384 26.7497C32.9115 27.5661 34.0651 28.702 34.8992 30.1573C35.7511 31.6127 36.1771 33.2544 36.1771 35.0824C36.1771 36.9105 35.7511 38.561 34.8992 40.0341C34.0473 41.4894 32.8937 42.6253 31.4384 43.4417C29.983 44.2581 28.3768 44.6663 26.6198 44.6663ZM26.6198 40.5133C28.1106 40.5133 29.2997 40.0164 30.1871 39.0225C31.0923 38.0286 31.5449 36.7152 31.5449 35.0824C31.5449 33.4319 31.0923 32.1185 30.1871 31.1424C29.2997 30.1485 28.1106 29.6515 26.6198 29.6515C25.1112 29.6515 23.9043 30.1396 22.9992 31.1157C22.1118 32.0919 21.6681 33.4141 21.6681 35.0824C21.6681 36.733 22.1118 38.0552 22.9992 39.0491C23.9043 40.0252 25.1112 40.5133 26.6198 40.5133ZM37.9377 35.109C37.9377 33.2632 38.337 31.6216 39.1357 30.184C39.9343 28.7286 41.0436 27.6016 42.4634 26.803C43.901 25.9866 45.5249 25.5784 47.3352 25.5784C49.5537 25.5784 51.4528 26.164 53.0324 27.3354C54.6119 28.5068 55.6679 30.1041 56.2004 32.1274H51.1954C50.8227 31.3465 50.2903 30.7519 49.5981 30.3437C48.9237 29.9355 48.1517 29.7314 47.282 29.7314C45.8799 29.7314 44.744 30.2195 43.8744 31.1956C43.0047 32.1717 42.5699 33.4762 42.5699 35.109C42.5699 36.7419 43.0047 38.0463 43.8744 39.0225C44.744 39.9986 45.8799 40.4867 47.282 40.4867C48.1517 40.4867 48.9237 40.2826 49.5981 39.8744C50.2903 39.4662 50.8227 38.8716 51.1954 38.0907H56.2004C55.6679 40.114 54.6119 41.7113 53.0324 42.8827C51.4528 44.0363 49.5537 44.6131 47.3352 44.6131C45.5249 44.6131 43.901 44.2138 42.4634 43.4151C41.0436 42.5987 39.9343 41.4717 39.1357 40.0341C38.337 38.5965 37.9377 36.9548 37.9377 35.109ZM63.5405 25.7913V44.48H58.9882V25.7913H63.5405ZM78.4734 41.1789H71.4984L70.3803 44.48H65.615L72.377 25.7913H77.6481L84.4101 44.48H79.5915L78.4734 41.1789ZM77.302 37.6647L74.9859 30.8229L72.6964 37.6647H77.302ZM91.0205 40.9659H96.9838V44.48H86.4681V25.7913H91.0205V40.9659Z" fill="white"/>
</svg>
